<?xml version="1.0" encoding="utf-8"?>
<!-- Generator: Adobe Illustrator 18.1.1, SVG Export Plug-In . SVG Version: 6.00 Build 0)  -->
<svg version="1.1" id="Layer_1" xmlns="http://www.w3.org/2000/svg" xmlns:xlink="http://www.w3.org/1999/xlink" x="0px" y="0px"
	 viewBox="0 0 160 94.1" enable-background="new 0 0 160 94.1" xml:space="preserve">
<path fill="#151515" d="M71.6,56.5c-0.9,2-1,4.1-0.6,6.2c0.3,1.3,1.1,1.6,2.1,0.7c3.6-3.3,5.7-8.2,8.4-12.3c0.4-0.6,1.3-1.2,2.1-1.4
	c1.3-0.2,2.2,0.6,2.1,2c-0.1,1.3-0.5,2.6-0.5,3.9c0.2,0,0.4,0,0.6-0.2c0.2-0.2,0.4-0.4,0.6-0.6c0.9-1.2,2.1-1.2,3.3-0.7
	c1.1,0.4,1.4,1.4,1.4,2.5c0,1,0,2,0,2.9c0,0.2,0.1,0.4,0.2,0.6c0.2-0.1,0.4-0.2,0.6-0.4c0.7-0.8,1.4-1.6,2-2.4
	c0.7-0.8,1.6-1.4,2.7-1.6c0.2,0,0.7-0.7,0.6-0.8c-0.6-1.2-0.4-2.2,0.3-3.2c0.7-0.9,1.5-1.7,2.6-2c1.6-0.4,3.3-0.8,4.9-1.1
	c1.4-0.2,2-1.3,2.6-2.3c3.5-5.9,8.4-11.3,13.3-16c2-1.9,4.4-3.5,6.6-5.1c1.5-1.1,3.3-1,5-0.8c1,0.1,1.2,1.1,1.5,1.9
	c0.6,1.8,0.3,3.6-0.5,5.4c-0.3,0.7-0.5,1.4-0.7,2.1c0,0,0.2,0.2,0.4,0.2s0.3-0.2,0.5-0.2c0.5-0.3,1-0.6,1.5-0.2
	c0.6,0.4,0.9,1,0.6,1.8c-1.7,4.2-3.5,8.3-5.3,12.5c-0.1,0.2-0.1,0.5-0.1,0.8c0.3,0,0.6,0,0.8-0.1c6.6-3.1,13.9-7.4,21.2-8.7
	c0.5-0.1,1.3,0.1,1.7,0.5c0.7,0.6,0.6,1.4,0,2.2c-1.7,2.5-3.4,5.1-5.1,7.6c-0.6,0.9-0.4,1.2,0.6,1.3c1.2,0.2,2.3,0.3,3.4,0.6
	c0.4,0.2,0.9,0.8,1,1.3c0.7,2.2-7.6,2.9-8.8,3.3c-1.1,0.4-1.7,1.2-2.3,2.1c-3,4.4-5.9,9-9.4,13c-0.8,0.9-1.8,1.7-2.8,2.5
	c-1,0.8-1.1,1.2,0,1.8c9.6,5.3,20.9,9.7,29,17.3c0.2,0.2,0.2,0.6,0.1,0.8c-1.2,1.2-12.4-6.4-14.2-7.4c-5.2-2.8-10.5-5.5-15.8-8.1
	c-1.4-0.7-2.8-1.8-4.6-1.6c-1.4,0.2-2.2-0.6-2.8-1.6c-0.8-1.4-2.2-2.1-3.4-3c-0.2-0.2-1,0-1.3,0.3c-1.1,0.9-2,2.1-3.2,2.9
	c-1.6,1.1-3.7,1.3-4.9-0.4c-0.5-0.7-0.6-1.6-0.7-2.5c-0.1-1.8,0-3.6,0-5.3c0-0.2-0.1-0.4-0.2-0.7c-0.2,0.1-0.6,0.1-0.8,0.3
	c-1.3,1.3-2.8,2.1-4.3,3.1c-2.6,1.6-7,0.4-7.9-3c-0.5-2.1-0.3-4.2,0.2-6.2c0.2-0.6,0.4-1.2,0.5-1.7c0-0.2,0-0.4-0.1-0.6
	c-0.2,0.1-0.5,0.1-0.6,0.3c-1,1-1.9,2-2.9,3c-2,2.2-2.6,5-3.9,7.4c-0.4,0.7-1.1,0.9-1.8,0.8c-0.4-0.1-0.8-0.4-1-0.8
	c-0.2-0.4-0.1-1,0.1-1.4c1.2-3.1,1.8-6.4,2.1-9.8c0-0.3-0.2-0.6-0.2-1c-0.4,0.2-0.8,0.2-1,0.5c-2.3,2.9-3.4,6.4-4.9,9.6
	c-0.4,0.9-1.3,1.3-1.9,1.1c-1-0.4-1.6-1.4-1.2-2.4c1.6-3.6,2.6-7.6,3.4-11.4c0-0.2,0-0.4,0-0.6c-0.2,0.2-0.4,0.3-0.5,0.5
	c-1.8,3.2-3.5,6.3-5.4,9.3c-1,1.5-2.4,2.6-4,3.4c-0.9,0.5-1.7,0-2.4-0.4c-1-0.7-1.7-1.6-1.9-2.9c0-0.2-0.2-0.5-0.3-0.7
	c-1.8,2.2-2.4,3.9-5.3,5.2c-1.7,0.8-3.5-0.1-4.5-1.8c-1.4-2.5-1-5-0.3-7.6c1-3.4,3.4-5.6,6.2-7.4c1-0.6,2-1.1,3-1.7
	c0.2-0.1,0.2-0.3,0.4-0.5c-0.2,0-0.4-0.2-0.6-0.1c-1.2,0.2-2.3,0.5-3.5,0.6c-3.2,0.4-5.8,2.3-8.6,3.4c-2.6,1-4.2,4.1-5.8,6.2
	c-2.2,2.9-5.1,5.3-7.2,8.2c-2.3,3.2-3.6,7.2-5.3,10.7c-1.8,3.6-3.6,7.2-5.5,10.7c-0.4,0.7-0.8,1.3-1.7,1.1c-0.7-0.1-1.4-0.9-1.4-1.8
	c0.2-4.3,1.6-8.6,2.8-12.6c0-0.2,0-0.4,0-0.6c-2.9,0.8-5.8,2.6-8.7,3.5c-3,1-6.1,1-9.3,1.2c-3,0.2-5.4-1-7.6-2.8
	c-2.6-2.2-4.1-5.1-4.8-8.4C0.2,67.1,0,65.5,0,63.9c0.1-3.4,0.6-6.7,1.6-10c4.2-13.2,12.4-26.5,23-35.5c2.7-2.3,5.6-4.2,8.5-6.2
	c1.2-0.8,2.6-1.4,4-1.9c0.9-0.3,0.7-0.7,0.5-1.3c-0.1-0.4-0.2-0.9-0.1-1.3c0.2-0.8,0-1.1-0.8-1.1c-8.5-0.1-17.5-1.8-25.8-3.5
	c-1-0.2-2-0.2-2.5-1.4c-0.2-0.4-0.2-0.9,0-1.2c0.3-0.5,0.8-0.8,1.6-0.6c9,2.5,19,3.4,28.3,4.3c4.2,0.4,8.5,1,12.7,1.5
	c2.6,0.3,5.2,0.6,7.8,1c1.9,0.3,6.1,1.9,7.8,1c0.8-0.4,1.6-1,2.4-1.5c2.8-2,5.8-2.7,8.9-1.3c1.1,0.5,2.2,1.5,2.9,2.5
	c0.9,1.2,1.6,2.6,2,4.1c0.6,2.5,0.8,5.1,0.5,7.8c-0.2,2.2-0.8,4.2-1.5,6.2c-1.4,3.8-3.5,7.4-5.9,10.7c-2.5,3.4-5.2,6.7-8.6,9.2
	c-0.2,0.1-0.3,0.5-0.2,0.6c0,0.2,0.4,0.3,0.6,0.3c1.2,0.2,2.4,0.2,3.6,0.4c1.2,0.1,2.3,1.4,2.3,2.6C73.8,51.8,72.4,54.3,71.6,56.5
	 M10,40.9c-2.4,4.1-4.2,8.5-6,13c-1,2.6-1.5,5.4-1.7,8.2c-0.1,1.7,0.1,3.4,0.2,5.1c0,1.9,0.7,3.6,1.7,5.2c1.8,2.8,4.2,4.5,7.5,4.8
	c2.9,0.2,5.7-0.1,8.6-0.7c3.9-0.9,7.7-2.2,11-4.6c0.5-0.4,0.9-0.9,1.1-1.4c2.6-7.2,4.7-14.7,7.8-21.8c3-7,6.7-13.7,10.6-20.3
	c0.3-0.6,0.6-1.1,0.2-1.7c-1-2-1.9-4-3-5.9c-1.7-3-3.7-5.8-6.2-8.2c-0.4-0.4-0.9-0.5-1.4-0.3c-3.2,1.3-6.2,2.8-9,4.7
	C22,23.2,15.8,31.6,10,40.9 M66.5,43c3-3,5.8-6,8.4-9.4c2-2.7,3.4-5.7,4.7-8.8c1.2-3,1.7-6,1.5-9.2c-0.2-2.6-0.6-5-2.8-6.9
	c-1.4-1.2-2.8-1.5-4.4-1.3c-1,0.1-2,0.7-3,1c-0.2,0.1-0.3,0.3-0.5,0.4c0.2,0.1,0.4,0.3,0.7,0.3c0.5,0.1,1,0.2,1.4,0.3
	c0.7,0.2,1.4,0.6,2,0.9c0.3,0.2,0.4,0.5,0.7,0.8c-0.4,0.2-0.8,0.6-1.1,0.5c-1.2-0.2-2.4-0.6-3.7-0.7c-1-0.1-2.2-0.4-2.9,0.1
	c-3.8,3-6.7,6.7-9.6,10.5c-0.8,1.1-1.4,2.3-1.5,3.7c-0.2,2.2-0.9,4.6-0.6,6.9c0.3,2.2,0.8,4.3,1,6.4c0.3,3.2-0.5,6.2-1.2,9.2
	c-0.1,0.2,0,0.7,0.1,0.8c0.2,0.1,0.6,0,0.8,0c1.7-0.4,3.6-0.8,5-1.9C63.1,45.5,64.7,44.3,66.5,43 M121.5,32.9
	c-4.2,4.7-8.1,9.4-11.9,14.4c-0.2,0.2-0.2,0.5-0.3,0.7c0.2,0.1,0.5,0.2,0.8,0.2c1.4,0,2.8,0,4.3,0c0.7,0,1.2-0.2,1.5-0.9
	c2.6-5.4,6-11.4,10.5-15.3c0.6-0.5,1.4-0.6,2,0c0.5,0.5,0.7,1.2,0.3,2c-2.8,4.8-6.3,9.5-8.4,14.6c0.4,0,0.8,0.1,1.2,0.2
	c0.8,0.2,1.5,0,1.9-0.8c2.7-4.8,5.2-9.7,7.5-14.7c0.8-1.9,1.5-3.8,1.4-6c0-0.8-0.4-1.3-1.2-1.2c-0.9,0.2-1.8,0.5-2.5,0.9
	C125.9,28.7,123.5,30.5,121.5,32.9 M48,47.2c1.7-4.9,5.3-11.4,4.9-16.6c0-0.2-0.2-0.5-0.3-0.7c-0.2,0.1-0.4,0.2-0.4,0.4
	c-3.6,6.4-7,12.8-10,19.4c-2.8,6-5.7,13.1-6.9,19.6c0.3-0.1,0.7-0.1,0.9-0.3c1.4-1.1,3.4-2.7,4.2-4.3C43.3,59.2,45.4,53.1,48,47.2
	 M130.4,58.6c-0.9-0.1-1.9-0.2-2.8-0.2c-1.3,0-1.6,0.2-1.9,1.5c-0.8,3.6-1.4,7.8-1.1,11.5c0.2,1.8,2.5,2.8,3.9,1.6
	c4.9-4,8.4-9.6,12.1-14.7c0.1-0.2,0.2-0.4,0.3-0.7c-0.3-0.1-0.5-0.2-0.8-0.2C136.8,57.9,133.6,58.3,130.4,58.6 M121.5,61.1
	c0.5-1,0.8-2.1,1.5-3c1-1.3-0.4-1.8-0.9-2.5c-0.2-0.3-1.1-0.2-1.6,0c-1.4,0.5-2.6,1.1-4,1.6c-1.3,0.6-2.4,1.3-2.8,2.7
	c-0.5,1.4-0.8,3-1.2,4.4c0,0.3,0.2,0.8,0.4,0.9c1.2,0.8,2.5,1.6,3.8,2.5c0.7,0.4,1.2,0.1,1.5-0.4C119.4,65.3,120.4,63.3,121.5,61.1
	 M47.3,8.7c1.5,0.1,3,0.4,4.2,1.3c3.6,2.5,3.5,5.4,5,9c0.2-0.1,0.4-0.2,0.6-0.4c2.2-2.5,4.4-5,6.6-7.6c0.2-0.2,0.3-0.5,0.4-0.8
	c-0.4-0.2-0.7-0.4-1-0.5C55.4,9,47.8,8.1,40.2,7.1c-0.2,0-0.4,0.1-0.6,0.2c0.1,0.1,0.2,0.4,0.3,0.4c0.8,0.3,1.5,0.8,2.3,0.9
	C43.9,8.7,45.5,8.6,47.3,8.7 M68.5,55.6c0.2-0.7,0.4-1.4,0.6-2.2c0-0.2,0-0.5-0.1-0.6c-0.1-0.1-0.4-0.1-0.6,0
	c-1.7,0.9-3.1,2.1-4.6,3.2c-2.4,1.8-3.5,4.2-3.4,7.2c0.1,2.2,1.3,2.4,3,1.4c0.8-0.4,1.3-1.2,1.9-1.9C67.1,60.8,68.4,58.5,68.5,55.6
	 M47.8,11.3c-0.6-0.1-1.1-0.2-1.6-0.2c-0.5,0-1,0.2-1.5,0.2c0.1,0.5,0.2,1,0.4,1.4c2.4,3.6,5.6,7.1,7,11.3c0.1,0.3,0.6,0.9,1,0.3
	c0.6-0.8,1.2-1.6,1.1-2.7c-0.2-1.3-0.1-2.7-0.4-4c-0.4-1.9-1.4-3.6-3-4.7C49.9,12.3,48.9,11.8,47.8,11.3 M142.7,45.7
	c-2.6,1-5.1,2-7.7,3.1c-0.2,0.1-0.4,0.3-0.5,0.5c0.2,0.2,0.4,0.4,0.7,0.4c3.3,0.1,6.6,0.4,10,0.6c0.4,0,0.9-0.2,1.1-0.5
	c1.4-2,2.8-4,4.1-6c0.2-0.3,0.2-0.6,0.4-0.9c-0.3,0-0.7-0.2-1-0.1C147.2,43.3,145,44.5,142.7,45.7 M129,51.9c-0.4,0.7-1,1.4-1.4,2.1
	c-0.6,1-0.1,1.7,1,1.7c1.6,0,3.5,0.3,5.2,0.2c2.2-0.2,4.5-0.5,6.7-0.8c1.2-0.2,2.4-0.5,3.2-1.6c0.1-0.2,0-0.6,0-0.6
	C139.4,51.5,133.4,51.7,129,51.9 M112.3,55.8c0.6-1.4,1.1-2.8,1.7-4.2c0.2-0.4,0-0.5-0.4-0.5c-1.7,0-3.4,0-5.1,0
	c-1.3,0-1.3,0.2-1.4,1.5c-0.1,1-0.2,2-0.5,3c-0.3,1-1,1.8-1.4,2.7c-0.2,0.4-0.2,0.8-0.2,1.2c0,0.1,0.5,0.3,0.7,0.2
	c1.6-0.6,3.3-0.7,4.8-1.8C111.1,57.3,111.9,56.8,112.3,55.8 M103.7,67.3c0.6-0.4,1.3-0.9,1.9-1.4c0.6-0.4,0.6-1.1,0-1.5
	c-1.2-0.9-2.4-1.7-3.4-2.6c-0.8-0.7-1.4-1.6-2.1-2.4c-0.4-0.5-1-0.5-1.1,0.1c-0.4,1.8-1.1,3.5-0.8,5.3c0.2,1.2,0.6,2.5,1.8,3.2
	C101.3,68.5,102.4,67.8,103.7,67.3 M53.1,40.4c-1.3,3.6-2.7,7.1-4.1,10.6c-0.1,0.2-0.1,0.5-0.2,0.8c0.2-0.1,0.5-0.1,0.7-0.2
	c0.6-0.4,1.3-0.8,1.9-1.2c0.2-0.1,0.4-0.3,0.5-0.5c1.3-2.4,1.8-5.2,2.2-7.8c0.2-1.5,0.3-3.1,0.4-4.6c0-0.2-0.2-0.5-0.3-0.8
	c-0.1,0.2-0.4,0.3-0.4,0.5C53.6,38.1,53.3,39.2,53.1,40.4 M36.7,72.8c0.1-0.3,0.3-0.5,0.4-0.8c0.1-0.2,0.1-0.4,0.2-0.6
	c-0.2,0-0.5,0-0.6,0.2c-0.4,0.2-0.8,0.5-1.1,0.8c-1,0.7-1.7,1.5-2,2.7c-0.4,1.6-2.4,5.8-1.7,7.3c0.1-0.1,0.3-0.2,0.4-0.3
	C33.6,79,35.1,75.9,36.7,72.8 M111.9,71.5c0,0.2,0,0.4,0,0.6c0.2,0.5,0.3,1.2,0.7,1.4c0.4,0.2,1-0.2,1.5-0.5
	c0.5-0.3,0.8-0.8,1.2-1.2c0.6-0.6,0.6-1.1-0.2-1.6c-0.7-0.5-1.4-1-2.2-1.4c-0.4-0.2-1.1-0.4-1.2,0.2
	C111.6,69.7,111.8,70.5,111.9,71.5 M120.6,53.1c0.2-0.1,0.5-0.2,0.7-0.4c0.6-0.5,0.6-1.2,0.1-1.5c-0.8-0.4-2.6-0.2-3.2,0.5
	c-0.6,0.9-1.2,1.9-1.7,2.8c-0.1,0.1-0.1,0.3-0.1,0.5c0.2,0,0.4,0,0.5-0.1C118.1,54.4,119.3,53.8,120.6,53.1 M47.5,55.2
	c-0.7,1.4-1.4,2.7-2.1,4c-0.2,0.4-0.1,0.8-0.1,1.3c0.3-0.3,0.6-0.6,0.8-0.9c0.8-1.2,1.6-2.4,2.3-3.8c0.2-0.3-0.3-0.8-0.5-1.3
	C47.8,54.7,47.6,54.9,47.5,55.2 M120.3,69.8c0.2,0.2,0.5,0.4,0.7,0.5c0.1,0.1,0.3,0.1,0.5,0.2c0.1-0.2,0.2-0.4,0.2-0.7
	c0-0.8,0-1.6,0-2.3c0-0.5,0.3-0.9,0.4-1.4c0-0.1-0.2-0.3-0.2-0.4c-0.1,0.1-0.3,0.2-0.3,0.3c-0.2,0.5-0.5,1-0.7,1.4
	C120.6,68.2,120.4,69,120.3,69.8 M102.6,53c-0.4,0.6-1,1.1-1.3,1.8c-0.6,1,0.7,1.4,1.2,0.6c0.4-0.6,0.7-1.2,1-1.9
	c0.2-0.4,0.2-0.8,0.3-1.2C103.4,52.5,103,52.7,102.6,53 M108.9,62.1c0.2-0.3,0.5-0.6,0.7-1c0.1-0.2,0.2-0.4,0.2-0.6
	c-0.2,0-0.5,0-0.7,0.1c-0.4,0.2-0.9,0.4-1.3,0.6c-0.2,0.2-0.4,0.4-0.6,0.6c0.3,0.2,0.6,0.4,0.9,0.5
	C108.4,62.5,108.6,62.3,108.9,62.1 M126.4,48.9c0.1-0.4,0-0.7-0.2-1.1c-0.1,0.1-0.2,0.2-0.3,0.4C125.7,48.6,125.8,48.9,126.4,48.9
	 M146.8,53.3c0,0.2-0.1,0.3-0.1,0.4c0.1,0,0.2,0,0.2,0C147,53.6,147,53.4,146.8,53.3C146.8,53.5,147,53.4,146.8,53.3z"/>
</svg>
