<?xml version="1.0" encoding="utf-8"?>
<!-- Generator: Adobe Illustrator 21.0.2, SVG Export Plug-In . SVG Version: 6.00 Build 0)  -->
<svg version="1.1" id="Layer_1" xmlns="http://www.w3.org/2000/svg" xmlns:xlink="http://www.w3.org/1999/xlink" x="0px" y="0px"
	 viewBox="0 0 25 23.9" enable-background="new 0 0 25 23.9" xml:space="preserve">
<path fill="#ffffff" d="M0,2.8c0-0.8,0.3-1.5,0.8-2C1.4,0.3,2.1,0,3,0c0.9,0,1.6,0.3,2.1,0.8C5.8,1.3,6,2,6,2.8c0,0.8-0.3,1.4-0.8,1.9
	C4.6,5.3,3.9,5.6,3,5.6h0c-0.9,0-1.6-0.3-2.1-0.8S0,3.6,0,2.8z M0.3,23.9V7.8h5.4v16.1H0.3z M8.6,23.9H14v-9c0-0.6,0.1-1,0.2-1.3
	c0.2-0.5,0.6-1,1-1.4c0.5-0.4,1-0.6,1.7-0.6c1.8,0,2.7,1.2,2.7,3.6v8.6H25v-9.2c0-2.4-0.6-4.2-1.7-5.4c-1.1-1.2-2.6-1.8-4.5-1.8
	c-2.1,0-3.7,0.9-4.9,2.7v0h0l0,0V7.8H8.6c0,0.5,0,2.1,0,4.8C8.7,15.3,8.7,19,8.6,23.9z"/>
</svg>
