<?xml version="1.0" encoding="utf-8"?>
<!-- Generator: Adobe Illustrator 21.0.2, SVG Export Plug-In . SVG Version: 6.00 Build 0)  -->
<svg version="1.1" id="Layer_1" xmlns="http://www.w3.org/2000/svg" xmlns:xlink="http://www.w3.org/1999/xlink" x="0px" y="0px"
	 viewBox="0 0 422 60" style="enable-background:new 0 0 422 60;" xml:space="preserve">
<g>
	<path d="M19.4,46c0,3.9-1.4,7.2-4.1,9.9c-2.7,2.7-6,4-9.9,4c-2.2,0-4.1-0.2-5.5-0.7L1.3,51c1,0.2,1.9,0.3,2.6,0.3
		c0.4,0,1.1,0,1.9,0c1.4-0.1,2.6-0.6,3.6-1.5c1-0.9,1.5-2.1,1.5-3.5V0.8h8.6V46z"/>
	<path d="M36.9,45.8l-2.1,13.5h-9.2l10-58.6h12.1l9.8,58.6h-9.3l-2.1-13.5H36.9z M41.5,14.2l-3.3,23.1h6.5L41.5,14.2z"/>
	<path d="M73.7,59.3h-8.8V0.7h12.7l8.2,42.1l7.9-42.1h12.2v58.6H97V22.5l-7.7,36.8h-7.1l-8.6-36.7V59.3z"/>
	<path d="M113.7,59.3V0.7h25.1v8.9h-16.3v16h11.9v8.9h-11.9v16h16.3v8.9H113.7z"/>
	<path d="M174.2,44.7c0.1,4.1-1,7.6-3.2,10.5c-1.4,2-3.5,3.3-6.1,4.2c-1.4,0.4-3,0.7-4.9,0.7c-3.5,0-6.3-0.9-8.6-2.6
		c-1.9-1.4-3.4-3.3-4.5-5.7c-1.1-2.4-1.8-5.2-1.9-8.3l8.4-0.6c0.4,3.4,1.3,5.9,2.7,7.4c1.1,1.2,2.3,1.7,3.6,1.6
		c1.9-0.1,3.5-1,4.6-2.9c0.6-0.9,0.9-2.2,0.9-3.9c0-2.4-1.1-4.8-3.3-7.2c-1.7-1.7-4.4-4.1-7.9-7.4c-2.9-2.8-5-5.4-6.2-7.6
		c-1.3-2.5-2-5.3-2-8.2c0-5.3,1.8-9.4,5.4-12.1c2.2-1.7,5-2.5,8.2-2.5c3.1,0,5.8,0.7,8.1,2.1c1.7,1.1,3.2,2.6,4.2,4.6
		c1.1,2,1.7,4.2,1.9,6.8l-8.5,1.5c-0.2-2.4-0.9-4.3-2.1-5.6c-0.8-1-2-1.4-3.5-1.4c-1.6,0-2.9,0.7-3.7,2.1c-0.7,1.2-1,2.6-1,4.3
		c0,2.7,1.2,5.4,3.5,8.2c0.9,1.1,2.2,2.3,3.9,3.7c2.1,1.7,3.4,2.9,4.1,3.6c2.2,2.2,3.9,4.3,5,6.4c0.6,1,1,1.9,1.4,2.8
		C173.7,41.2,174.1,43.1,174.2,44.7z"/>
	<path d="M200.2,0.7c4.3,0,7.7,1.4,10.3,4.1c2.4,2.6,3.6,5.9,3.6,9.9v8.5c0,3.9-1.3,7.2-4,9.9c-2.7,2.7-6,4.1-9.8,4.1h-5.1v22.1
		h-8.8V0.7H200.2z M205.5,14.9c0-1.5-0.5-2.8-1.4-3.7c-0.9-0.9-2.1-1.4-3.7-1.4h-5.3v18.7h5.3c1.4,0,2.6-0.5,3.6-1.5
		c1-1,1.5-2.2,1.5-3.6V14.9z"/>
	<path d="M226.8,45.8l-2.1,13.5h-9.2l10-58.6h12.1l9.8,58.6h-9.3L236,45.8H226.8z M231.4,14.2l-3.3,23.1h6.5L231.4,14.2z"/>
	<path d="M268.7,0.7c4.9,0,8.5,1.4,10.8,4.1c2,2.4,3,5.7,3,9.9v8.5c0,4.1-1.6,7.6-4.7,10.5l6.5,25.6h-9.6l-5.4-22.1
		c-0.3,0-0.5,0-0.8,0h-5.1v22.1h-8.8V0.7H268.7z M274,14.9c0-3.4-1.7-5.1-5-5.1h-5.3v18.7h5.3c1.4,0,2.6-0.5,3.6-1.5
		c1-1,1.5-2.2,1.5-3.6V14.9z"/>
	<path d="M305.9,0.7c4.9,0,8.5,1.4,10.8,4.1c2,2.4,3,5.7,3,9.9v8.5c0,4.1-1.6,7.6-4.7,10.5l6.5,25.6h-9.6l-5.4-22.1
		c-0.3,0-0.5,0-0.8,0h-5.1v22.1H292V0.7H305.9z M311.2,14.9c0-3.4-1.7-5.1-5-5.1h-5.3v18.7h5.3c1.4,0,2.6-0.5,3.6-1.5
		c1-1,1.5-2.2,1.5-3.6V14.9z"/>
	<path d="M329.2,59.3V0.7h25.1v8.9H338v16h11.9v8.9H338v16h16.3v8.9H329.2z"/>
	<path d="M369.8,9.6h-9.4V0.7H388v8.9h-9.3v49.7h-8.8V9.6z"/>
	<path d="M403.4,9.6h-9.4V0.7h27.6v8.9h-9.3v49.7h-8.8V9.6z"/>
</g>
</svg>
